<svg width="161" height="32" viewBox="0 0 161 32" fill="none" xmlns="http://www.w3.org/2000/svg">
<path d="M8 3.42857H12.3626V32H8V3.42857Z" fill="#A48BFF"/>
<path d="M19.8932 3.42857H24.2558V32H19.8932V3.42857Z" fill="#C6B6FF"/>
<path d="M13.9466 0H18.3092V32H13.9466V0Z" fill="#4F34B1"/>
<path d="M157.658 12.9155C157.612 12.452 157.414 12.0919 157.064 11.8352C156.713 11.5786 156.238 11.4502 155.638 11.4502C155.23 11.4502 154.886 11.5077 154.605 11.6226C154.324 11.7337 154.108 11.8888 153.958 12.088C153.812 12.2872 153.739 12.5133 153.739 12.7661C153.731 12.9768 153.775 13.1607 153.872 13.3177C153.972 13.4748 154.108 13.6108 154.281 13.7257C154.455 13.8368 154.655 13.9345 154.882 14.0188C155.109 14.0992 155.351 14.1682 155.609 14.2256L156.671 14.4784C157.187 14.5934 157.66 14.7466 158.091 14.9381C158.522 15.1297 158.895 15.3653 159.211 15.6449C159.526 15.9246 159.771 16.254 159.944 16.6333C160.121 17.0125 160.211 17.4473 160.215 17.9376C160.211 18.6578 160.027 19.2822 159.661 19.8109C159.299 20.3357 158.776 20.7437 158.091 21.0348C157.41 21.3221 156.588 21.4658 155.626 21.4658C154.672 21.4658 153.841 21.3202 153.133 21.0291C152.428 20.7379 151.878 20.307 151.482 19.7362C151.089 19.1616 150.883 18.451 150.864 17.6044H153.283C153.31 17.9989 153.423 18.3284 153.623 18.5927C153.827 18.8532 154.099 19.0505 154.437 19.1845C154.78 19.3148 155.166 19.3799 155.597 19.3799C156.021 19.3799 156.388 19.3186 156.7 19.196C157.015 19.0735 157.26 18.903 157.433 18.6846C157.606 18.4663 157.693 18.2154 157.693 17.9319C157.693 17.6676 157.614 17.4454 157.456 17.2653C157.302 17.0853 157.075 16.9321 156.775 16.8056C156.479 16.6792 156.115 16.5643 155.684 16.4609L154.397 16.1391C153.4 15.8977 152.613 15.5204 152.036 15.0071C151.459 14.4938 151.172 13.8023 151.176 12.9327C151.172 12.2202 151.362 11.5977 151.747 11.0652C152.136 10.5328 152.669 10.1171 153.346 9.81832C154.024 9.51952 154.793 9.37012 155.655 9.37012C156.533 9.37012 157.298 9.51952 157.953 9.81832C158.611 10.1171 159.122 10.5328 159.488 11.0652C159.854 11.5977 160.042 12.2145 160.054 12.9155H157.658Z" fill="#280D8A"/>
<path d="M139.937 11.5824V9.53101H149.646V11.5824H146.027V21.2991H143.556V11.5824H139.937Z" fill="#280D8A"/>
<path d="M136.149 12.9155C136.103 12.452 135.905 12.0919 135.555 11.8352C135.204 11.5786 134.729 11.4502 134.129 11.4502C133.721 11.4502 133.376 11.5077 133.096 11.6226C132.815 11.7337 132.599 11.8888 132.449 12.088C132.303 12.2872 132.23 12.5133 132.23 12.7661C132.222 12.9768 132.266 13.1607 132.362 13.3177C132.463 13.4748 132.599 13.6108 132.772 13.7257C132.945 13.8368 133.146 13.9345 133.373 14.0188C133.6 14.0992 133.842 14.1682 134.1 14.2256L135.162 14.4784C135.678 14.5934 136.151 14.7466 136.582 14.9381C137.013 15.1297 137.386 15.3653 137.702 15.6449C138.017 15.9246 138.262 16.254 138.435 16.6333C138.612 17.0125 138.702 17.4473 138.706 17.9376C138.702 18.6578 138.518 19.2822 138.152 19.8109C137.79 20.3357 137.267 20.7437 136.582 21.0348C135.901 21.3221 135.079 21.4658 134.117 21.4658C133.163 21.4658 132.332 21.3202 131.624 21.0291C130.919 20.7379 130.369 20.307 129.973 19.7362C129.58 19.1616 129.374 18.451 129.355 17.6044H131.774C131.801 17.9989 131.914 18.3284 132.114 18.5927C132.318 18.8532 132.59 19.0505 132.928 19.1845C133.271 19.3148 133.657 19.3799 134.088 19.3799C134.512 19.3799 134.879 19.3186 135.191 19.196C135.506 19.0735 135.751 18.903 135.924 18.6846C136.097 18.4663 136.184 18.2154 136.184 17.9319C136.184 17.6676 136.105 17.4454 135.947 17.2653C135.793 17.0853 135.566 16.9321 135.266 16.8056C134.97 16.6792 134.606 16.5643 134.175 16.4609L132.888 16.1391C131.891 15.8977 131.104 15.5204 130.527 15.0071C129.95 14.4938 129.663 13.8023 129.667 12.9327C129.663 12.2202 129.853 11.5977 130.238 11.0652C130.627 10.5328 131.16 10.1171 131.837 9.81832C132.514 9.51952 133.284 9.37012 134.146 9.37012C135.024 9.37012 135.789 9.51952 136.443 9.81832C137.102 10.1171 137.613 10.5328 137.979 11.0652C138.344 11.5977 138.533 12.2145 138.545 12.9155H136.149Z" fill="#280D8A"/>
<path d="M119.783 21.2991V9.53101H127.749V11.5824H122.283V14.3865H127.339V16.4379H122.283V19.2478H127.772V21.2991H119.783Z" fill="#280D8A"/>
<path d="M109.76 9.53101L112.617 18.472H112.727L115.59 9.53101H118.36L114.285 21.2991H111.064L106.983 9.53101H109.76Z" fill="#280D8A"/>
<path d="M105.559 9.53101V21.2991H103.4L98.2569 13.8923H98.1703V21.2991H95.6709V9.53101H97.8643L102.967 16.9321H103.071V9.53101H105.559Z" fill="#280D8A"/>
<path d="M93.6145 9.53101V21.2991H91.1151V9.53101H93.6145Z" fill="#280D8A"/>
<path d="M85.2879 9.53101V21.2991H83.1291L77.986 13.8923H77.8994V21.2991H75.4V9.53101H77.5935L82.6962 16.9321H82.8001V9.53101H85.2879Z" fill="#280D8A"/>
<path d="M65.4471 21.2991V9.53101H73.4129V11.5824H67.9465V14.3865H73.003V16.4379H67.9465V19.2478H73.436V21.2991H65.4471Z" fill="#280D8A"/>
<path d="M54.9227 21.2991V9.53101H59.5868C60.4834 9.53101 61.2473 9.70148 61.8784 10.0424C62.5095 10.3795 62.9905 10.8488 63.3214 11.4502C63.6562 12.0478 63.8236 12.7374 63.8236 13.5188C63.8236 14.3003 63.6543 14.9899 63.3157 15.5875C62.977 16.1851 62.4864 16.6505 61.8437 16.9838C61.2049 17.317 60.4314 17.4837 59.5233 17.4837H56.5505V15.4898H59.1192C59.6002 15.4898 59.9966 15.4074 60.3083 15.2427C60.6238 15.0741 60.8586 14.8424 61.0125 14.5474C61.1703 14.2486 61.2492 13.9057 61.2492 13.5188C61.2492 13.1281 61.1703 12.7872 61.0125 12.496C60.8586 12.2011 60.6238 11.9731 60.3083 11.8122C59.9927 11.6475 59.5925 11.5651 59.1077 11.5651H57.4221V21.2991H54.9227Z" fill="#280D8A"/>
<path d="M53.0713 15.4151C53.0713 16.6984 52.8269 17.7901 52.3382 18.6904C51.8533 19.5906 51.1914 20.2782 50.3525 20.7532C49.5175 21.2244 48.5785 21.46 47.5356 21.46C46.4851 21.46 45.5423 21.2225 44.7072 20.7475C43.8722 20.2725 43.2122 19.5849 42.7273 18.6846C42.2424 17.7844 42 16.6945 42 15.4151C42 14.1318 42.2424 13.04 42.7273 12.1398C43.2122 11.2395 43.8722 10.5538 44.7072 10.0826C45.5423 9.60762 46.4851 9.37012 47.5356 9.37012C48.5785 9.37012 49.5175 9.60762 50.3525 10.0826C51.1914 10.5538 51.8533 11.2395 52.3382 12.1398C52.8269 13.04 53.0713 14.1318 53.0713 15.4151ZM50.5372 15.4151C50.5372 14.5838 50.4122 13.8828 50.162 13.312C49.9157 12.7412 49.5675 12.3083 49.1172 12.0133C48.667 11.7184 48.1398 11.5709 47.5356 11.5709C46.9315 11.5709 46.4043 11.7184 45.954 12.0133C45.5038 12.3083 45.1536 12.7412 44.9035 13.312C44.6572 13.8828 44.534 14.5838 44.534 15.4151C44.534 16.2463 44.6572 16.9474 44.9035 17.5182C45.1536 18.0889 45.5038 18.5218 45.954 18.8168C46.4043 19.1118 46.9315 19.2592 47.5356 19.2592C48.1398 19.2592 48.667 19.1118 49.1172 18.8168C49.5675 18.5218 49.9157 18.0889 50.162 17.5182C50.4122 16.9474 50.5372 16.2463 50.5372 15.4151Z" fill="#280D8A"/>
</svg>
